Coordinates
version=1
nRows=29
nColumns=24
inDegrees=yes

Units are S.I. units (second, meters, Newtons, ...)
Angles are in degrees.

endheader
time	pelvis_tilt	pelvis_list	pelvis_rotation	pelvis_tx	pelvis_ty	pelvis_tz	hip_flexion_r	hip_adduction_r	hip_rotation_r	knee_angle_r	ankle_angle_r	subtalar_angle_r	mtp_angle_r	hip_flexion_l	hip_adduction_l	hip_rotation_l	knee_angle_l	ankle_angle_l	subtalar_angle_l	mtp_angle_l	lumbar_extension	lumbar_bending	lumbar_rotation
      1.10816667	      0.63665944	      0.89642474	      1.86504991	     -0.09974360	      0.97806451	      0.30909471	    -21.68257943	      2.19801032	     -4.51106209	     -2.17491300	     19.31524296	     -0.68703183	     -5.65748639	     21.38565455	      2.61892792	      5.38692406	      3.21709011	     -2.81473392	     -9.29204137	     -3.69750968	    -13.44416732	      4.36772792	      6.65529862
      1.11233333	      0.66859625	      1.08020536	      1.87221933	     -0.09388235	      0.97740208	      0.30856448	    -21.83029630	      1.95795463	     -4.72119091	     -2.71292418	     19.46778231	     -0.40501070	     -5.57355816	     21.40356307	      2.90253639	      5.53328253	      2.82415182	     -3.03597879	     -9.51199525	     -3.60965479	    -13.47435309	      4.13108865	      6.63576848
      1.11650000	      0.69635168	      1.27555992	      1.87981836	     -0.08799648	      0.97678267	      0.30801541	    -21.95833730	      1.70262603	     -4.92362912	     -3.28446623	     19.59091688	     -0.14386439	     -5.47263931	     21.43907821	      3.20202679	      5.67478180	      2.34381782	     -3.31155565	     -9.76674946	     -3.51710936	    -13.50093647	      3.88358151	      6.61211421
      1.12066667	      0.72074485	      1.48267157	      1.89098763	     -0.08207813	      0.97620675	      0.30745241	    -22.06458949	      1.43355276	     -5.13225929	     -3.89720232	     19.69125352	      0.11240588	     -5.34326673	     21.48625464	      3.51669797	      5.82709034	      1.79072859	     -3.63055840	    -10.06143812	     -3.41122239	    -13.51888922	      3.62142077	      6.57365658
      1.12483333	      0.73556363	      1.69489110	      1.90713659	     -0.07613058	      0.97566928	      0.30687140	    -22.15696427	      1.15973802	     -5.31095161	     -4.51682683	     19.75291925	      0.31943480	     -5.19751148	     21.56153443	      3.84144521	      5.95663303	      1.15216537	     -4.00045934	    -10.36807085	     -3.30717484	    -13.52008288	      3.35457356	      6.52922900
      1.12900000	      0.74573634	      1.91162567	      1.92726586	     -0.07015491	      0.97516993	      0.30628206	    -22.22942044	      0.88157592	     -5.48100219	     -5.16929343	     19.77443564	      0.49565547	     -5.03235710	     21.65204879	      4.17327214	      6.08372835	      0.45049592	     -4.40763752	    -10.70777621	     -3.20347450	    -13.51518403	      3.07938660	      6.47258419
      1.13316667	      0.74996137	      2.13011399	      1.95124645	     -0.06415938	      0.97471354	      0.30567083	    -22.27866775	      0.60023966	     -5.64467452	     -5.85468565	     19.75585827	      0.65120932	     -4.82652613	     21.75906574	      4.51080407	      6.21548528	     -0.30983081	     -4.84131057	    -11.08070759	     -3.09013064	    -13.50693739	      2.81160684	      6.40941315
      1.13733333	      0.75439881	      2.35043623	      1.98162369	     -0.05814539	      0.97429963	      0.30503531	    -22.30804421	      0.31656626	     -5.81085468	     -6.58307854	     19.69361983	      0.77843998	     -4.51244891	     21.87155246	      4.85401941	      6.36640135	     -1.11336680	     -5.27990791	    -11.50055700	     -2.93828790	    -13.49439591	      2.53345957	      6.33722304
      1.14150000	      0.75991483	      2.58546803	      2.00801508	     -0.05206962	      0.97395472	      0.30445468	    -22.36645285	      0.03098652	     -5.85880303	     -7.24841173	     19.52264440	      0.68892028	     -4.41120345	     22.00724105	      5.20472576	      6.38099251	     -1.99939371	     -5.67635490	    -11.72921601	     -2.90216415	    -13.46976031	      2.21582212	      6.26582707
      1.14566667	      0.71419904	      2.78468426	      2.04635609	     -0.04602953	      0.97356956	      0.30375983	    -22.30057477	     -0.23814308	     -6.00742814	     -8.05492680	     19.42029351	      0.85855493	     -4.11621450	     22.19787347	      5.53641052	      6.53018904	     -2.89713155	     -6.20701686	    -12.25523713	     -2.80865115	    -13.39967007	      1.99483382	      6.17621925
      1.14983333	      0.69728682	      3.00243445	      2.08170068	     -0.03994241	      0.97328342	      0.30309100	    -22.26665695	     -0.51935381	     -6.11088747	     -8.85566105	     19.21185034	      0.88028816	     -3.69308902	     22.35372985	      5.88191476	      6.64501574	     -3.81287954	     -6.68822067	    -12.72822014	     -2.69830993	    -13.35700067	      1.72889157	      6.07442062
      1.15400000	      0.72333691	      3.22649608	      2.11784885	     -0.03382726	      0.97310783	      0.30245172	    -22.29061854	     -0.79366765	     -6.14631116	     -9.61290509	     18.81442052	      0.65540843	      2.29294364	     22.47436822	      6.22904202	      6.70860533	     -4.77321332	     -7.09121501	    -13.12340060	     -1.47689853	    -13.37157384	      1.43617604	      6.01245273
      1.15816667	      0.69724506	      3.44489203	      2.15730462	     -0.02766383	      0.97292235	      0.30178324	    -22.23212098	     -1.06848382	     -6.19169595	    -10.43084187	     18.43597122	      0.55543990	      2.32447221	     22.65656986	      6.57158874	      6.74127877	     -5.76721692	     -7.39570411	    -13.41000929	     -1.49977712	    -13.30969484	      1.15391899	      5.90808090
      1.16233333	      0.65949369	      3.62178251	      2.20107455	     -0.02154839	      0.97275568	      0.30107220	    -22.11298335	     -1.30663734	     -6.23361788	    -11.33571419	     18.08184416	      0.49012313	      2.46710863	     22.85546476	      6.88232494	      6.84799025	     -6.77535300	     -7.73990772	    -13.88228406	     -1.55418690	    -13.23174622	      0.94966562	      5.79324260
      1.16650000	      0.63080753	      3.81741998	      2.23363680	     -0.01538585	      0.97267424	      0.30038733	    -21.98739855	     -1.56351684	     -6.24496183	    -12.26657723	     17.63094174	      0.32920371	      2.64221725	     23.02616708	      7.20284810	      6.92375944	     -7.76272997	     -8.02103875	    -14.25586567	     -1.61215812	    -13.16595757	      0.70924983	      5.69062878
      1.17066667	      0.64597578	      4.02799137	      2.25404773	     -0.00920442	      0.97270226	      0.29970213	    -21.89230224	     -1.84027286	     -6.25583262	    -13.21327520	     17.08834055	      0.11107225	      6.90377424	     23.13846971	      7.53704058	      7.00593851	     -8.74635757	     -8.21971675	    -14.67925884	     -2.76593718	    -13.16135008	      0.44333612	      5.60916517
      1.17483333	      0.64384352	      4.21994068	      2.29602246	     -0.00298892	      0.97276560	      0.29899208	    -21.77006577	     -2.08681427	     -6.25678928	    -14.16881644	     16.46711203	     -0.09547574	      6.93933582	     23.27671913	      7.85747364	      7.06314392	     -9.76329586	     -8.29821954	    -14.95765939	     -2.76959892	    -13.11581978	      0.19530736	      5.50242513
      1.17900000	      0.63528187	      4.39966086	      2.31651661	      0.00321745	      0.97287194	      0.29829285	    -21.59371115	     -2.33228396	     -6.22468410	    -15.20512286	     15.83568679	     -0.32239404	      7.01771388	     23.40924631	      8.16020395	      7.12476998	    -10.76181370	     -8.34394191	    -15.27588714	     -2.78605273	    -13.07344138	     -0.02657703	      5.39796053
      1.18316667	      0.63090406	      4.56960292	      2.33340538	      0.00942704	      0.97303783	      0.29758901	    -21.38733564	     -2.57165572	     -6.19156382	    -16.29325483	     15.13450765	     -0.56088302	      7.14538353	     23.52223759	      8.45275067	      7.19497559	    -11.73980155	     -8.32772685	    -15.58841582	     -2.81680588	    -13.03042764	     -0.23447152	      5.29701074
      1.18733333	      0.59844260	      4.69872997	      2.34161973	      0.01560505	      0.97321923	      0.29686743	    -21.09597076	     -2.77778595	     -6.13054234	    -17.46318529	     14.36582152	     -0.86100607	      7.51560665	     23.65510900	      8.70506415	      7.28600837	    -12.69951646	     -8.27796212	    -15.89452705	     -2.91187320	    -12.94389998	     -0.36131472	      5.18540791
      1.19150000	      0.68153423	      4.85461155	      2.34356891	      0.02182214	      0.97360218	      0.29621552	    -20.93970252	     -2.99584071	     -6.06368570	    -18.57763129	     13.41017727	     -1.30024352	     13.13832825	     23.67494764	      8.96491883	      7.24249486	    -13.71010695	     -7.88418970	    -15.85586771	     -4.38369014	    -13.01445890	     -0.55487965	      5.06028837
      1.19566667	      0.69202802	      5.03963804	      2.32156233	      0.02806062	      0.97395509	      0.29548765	    -20.62816522	     -3.28856478	     -6.07706768	    -19.85430138	     12.53783362	     -1.44193211	     13.22742582	     23.68529105	      9.27100928	      7.37352512	    -14.53458133	     -7.80624036	    -16.30150533	     -4.39466997	    -12.97242366	     -0.77705608	      5.01855620
      1.19983333	      0.79450535	      5.21422919	      2.28758154	      0.03427687	      0.97446212	      0.29480669	    -20.39373886	     -3.56487648	     -6.07007778	    -21.14189587	     11.60506371	     -1.62908756	     13.27856724	     23.60707436	      9.55166971	      7.41048406	    -15.39037003	     -7.53439637	    -16.58301351	     -4.40200265	    -13.05180954	     -0.98958055	      4.94178782
      1.20400000	      0.76848735	      5.31671101	      2.25968593	      0.04043376	      0.97483845	      0.29413008	    -19.96632515	     -3.76306090	     -5.96132843	    -22.49264017	     10.55552647	     -2.00428044	     13.64619015	     23.67894057	      9.76202283	      7.45422814	    -16.27137491	     -7.19523817	    -16.75413807	     -4.49150755	    -12.98413230	     -1.09728684	      4.85843103
      1.20816667	      0.80045728	      5.43974537	      2.22309514	      0.04660195	      0.97533380	      0.29346747	    -19.57233337	     -3.99083268	     -5.90197275	    -23.87754400	      9.43009280	     -2.35996083	     14.35157475	     23.66230552	      9.98308928	      7.45450657	    -17.10581465	     -6.76858182	    -16.82896255	     -4.67810222	    -12.97515853	     -1.24557223	      4.79557685
      1.21233333	      0.93046181	      5.63388975	      2.14701471	      0.05279853	      0.97601702	      0.29281789	    -19.25063258	     -4.32297416	     -5.90975623	    -25.31589024	      8.29986347	     -2.48169435	     14.49786928	     23.45972828	     10.27139060	      7.52086422	    -17.78111852	     -6.35586011	    -17.05196631	     -4.71327442	    -13.08783569	     -1.48026455	      4.71448103
      1.21650000	      1.00480929	      5.75854291	      2.06889362	      0.05891832	      0.97664254	      0.29217229	    -18.81544168	     -4.59009029	     -5.88094508	    -26.79487534	      6.99041753	     -2.83493157	     21.28884289	     23.34010398	     10.48048815	      7.50559929	    -18.49795046	     -5.84948364	    -17.13674629	     -6.69484628	    -13.12714640	     -1.60078585	      4.65786977
      1.22066667	      1.10027657	      5.91418943	      1.99382298	      0.06502075	      0.97732644	      0.29152427	    -18.37573702	     -4.89340540	     -5.87250769	    -28.32450284	      5.74904052	     -3.04194455	     21.30314598	     23.15168915	     10.72819395	      7.55787694	    -19.12271591	     -5.39133731	    -17.30971602	     -6.68331431	    -13.19711301	     -1.78202549	      4.58245659
      1.22483333	      1.14418358	      5.99739569	      1.90705604	      0.07104581	      0.97795144	      0.29092700	    -17.82881113	     -5.12200489	     -5.79594572	    -29.89919300	      4.43248609	     -3.37932965	     21.38789116	     23.03897735	     10.88388886	      7.51554946	    -19.78020653	     -4.86737048	    -17.36401904	     -6.69229130	    -13.20627183	     -1.86485162	      4.53261037
